<?xml version="1.0" encoding="utf-8" standalone="no"?>
<!DOCTYPE svg PUBLIC "-//W3C//DTD SVG 1.1//EN"
  "http://www.w3.org/Graphics/SVG/1.1/DTD/svg11.dtd">
<svg xmlns:xlink="http://www.w3.org/1999/xlink" width="1072.79625pt" height="352.629375pt" viewBox="0 0 1072.79625 352.629375" xmlns="http://www.w3.org/2000/svg" version="1.1">
 <metadata>
  <rdf:RDF xmlns:dc="http://purl.org/dc/elements/1.1/" xmlns:cc="http://creativecommons.org/ns#" xmlns:rdf="http://www.w3.org/1999/02/22-rdf-syntax-ns#">
   <cc:Work>
    <dc:type rdf:resource="http://purl.org/dc/dcmitype/StillImage"/>
    <dc:date>2026-02-01T13:50:01.251540</dc:date>
    <dc:format>image/svg+xml</dc:format>
    <dc:creator>
     <cc:Agent>
      <dc:title>Matplotlib v3.10.8, https://matplotlib.org/</dc:title>
     </cc:Agent>
    </dc:creator>
   </cc:Work>
  </rdf:RDF>
 </metadata>
 <defs>
  <style type="text/css">*{stroke-linejoin: round; stroke-linecap: butt}</style>
 </defs>
 <g id="figure_1">
  <g id="patch_1">
   <path d="M 0 352.629375 
L 1072.79625 352.629375 
L 1072.79625 -0 
L 0 -0 
z
" style="fill: #ffffff"/>
  </g>
  <g id="axes_1">
   <g id="patch_2">
    <path d="M 316.84 190.609375 
C 316.84 170.278599 312.83528 150.145514 305.055029 131.362326 
C 297.274778 112.579138 285.870302 95.511133 271.494272 81.135103 
C 257.118242 66.759073 240.050237 55.354597 221.267049 47.574346 
C 202.483861 39.794095 182.350776 35.789375 162.02 35.789375 
C 141.689224 35.789375 121.556139 39.794095 102.772951 47.574346 
C 83.989763 55.354597 66.921758 66.759073 52.545728 81.135103 
C 38.169698 95.511133 26.765222 112.579138 18.984971 131.362326 
C 11.20472 150.145514 7.2 170.278599 7.2 190.609375 
C 7.2 210.940151 11.20472 231.073236 18.984971 249.856424 
C 26.765222 268.639612 38.169698 285.707617 52.545728 300.083647 
C 66.921758 314.459677 83.989763 325.864153 102.772951 333.644404 
C 121.556139 341.424655 141.689224 345.429375 162.02 345.429375 
C 182.350776 345.429375 202.483861 341.424655 221.267049 333.644404 
C 240.050237 325.864153 257.118242 314.459677 271.494272 300.083647 
C 285.870302 285.707617 297.274778 268.639612 305.055029 249.856424 
C 312.83528 231.073236 316.84 210.940151 316.84 190.609375 
M 162.02 190.609375 
C 162.02 190.609375 162.02 190.609375 162.02 190.609375 
C 162.02 190.609375 162.02 190.609375 162.02 190.609375 
C 162.02 190.609375 162.02 190.609375 162.02 190.609375 
C 162.02 190.609375 162.02 190.609375 162.02 190.609375 
C 162.02 190.609375 162.02 190.609375 162.02 190.609375 
C 162.02 190.609375 162.02 190.609375 162.02 190.609375 
C 162.02 190.609375 162.02 190.609375 162.02 190.609375 
C 162.02 190.609375 162.02 190.609375 162.02 190.609375 
C 162.02 190.609375 162.02 190.609375 162.02 190.609375 
C 162.02 190.609375 162.02 190.609375 162.02 190.609375 
C 162.02 190.609375 162.02 190.609375 162.02 190.609375 
C 162.02 190.609375 162.02 190.609375 162.02 190.609375 
C 162.02 190.609375 162.02 190.609375 162.02 190.609375 
C 162.02 190.609375 162.02 190.609375 162.02 190.609375 
C 162.02 190.609375 162.02 190.609375 162.02 190.609375 
C 162.02 190.609375 162.02 190.609375 162.02 190.609375 
z
" style="fill: #ffffff"/>
   </g>
   <g id="matplotlib.axis_1">
    <g id="xtick_1">
     <g id="line2d_1">
      <path d="M 162.02 190.609375 
L 316.84 190.609375 
" clip-path="url(#pc94fcb57cc)" style="fill: none; stroke: #cccccc; stroke-width: 0.8; stroke-linecap: round"/>
     </g>
     <g id="text_1">
      <!-- Méthodes -->
      <g style="fill: #262626" transform="translate(308.88375 193.194531) scale(0.1 -0.1)">
       <defs>
        <path id="ArialMT-4d" d="M 475 0 
L 475 4581 
L 1388 4581 
L 2472 1338 
Q 2622 884 2691 659 
Q 2769 909 2934 1394 
L 4031 4581 
L 4847 4581 
L 4847 0 
L 4263 0 
L 4263 3834 
L 2931 0 
L 2384 0 
L 1059 3900 
L 1059 0 
L 475 0 
z
" transform="scale(0.015625)"/>
        <path id="ArialMT-e9" d="M 2694 1069 
L 3275 997 
Q 3138 488 2766 206 
Q 2394 -75 1816 -75 
Q 1088 -75 661 373 
Q 234 822 234 1631 
Q 234 2469 665 2931 
Q 1097 3394 1784 3394 
Q 2450 3394 2872 2941 
Q 3294 2488 3294 1666 
Q 3294 1616 3291 1516 
L 816 1516 
Q 847 969 1125 678 
Q 1403 388 1819 388 
Q 2128 388 2347 550 
Q 2566 713 2694 1069 
z
M 847 1978 
L 2700 1978 
Q 2663 2397 2488 2606 
Q 2219 2931 1791 2931 
Q 1403 2931 1139 2672 
Q 875 2413 847 1978 
z
M 1453 3731 
L 1869 4606 
L 2606 4606 
L 1919 3731 
L 1453 3731 
z
" transform="scale(0.015625)"/>
        <path id="ArialMT-74" d="M 1650 503 
L 1731 6 
Q 1494 -44 1306 -44 
Q 1000 -44 831 53 
Q 663 150 594 308 
Q 525 466 525 972 
L 525 2881 
L 113 2881 
L 113 3319 
L 525 3319 
L 525 4141 
L 1084 4478 
L 1084 3319 
L 1650 3319 
L 1650 2881 
L 1084 2881 
L 1084 941 
Q 1084 700 1114 631 
Q 1144 563 1211 522 
Q 1278 481 1403 481 
Q 1497 481 1650 503 
z
" transform="scale(0.015625)"/>
        <path id="ArialMT-68" d="M 422 0 
L 422 4581 
L 984 4581 
L 984 2938 
Q 1378 3394 1978 3394 
Q 2347 3394 2619 3248 
Q 2891 3103 3008 2847 
Q 3125 2591 3125 2103 
L 3125 0 
L 2563 0 
L 2563 2103 
Q 2563 2525 2380 2717 
Q 2197 2909 1863 2909 
Q 1613 2909 1392 2779 
Q 1172 2650 1078 2428 
Q 984 2206 984 1816 
L 984 0 
L 422 0 
z
" transform="scale(0.015625)"/>
        <path id="ArialMT-6f" d="M 213 1659 
Q 213 2581 725 3025 
Q 1153 3394 1769 3394 
Q 2453 3394 2887 2945 
Q 3322 2497 3322 1706 
Q 3322 1066 3130 698 
Q 2938 331 2570 128 
Q 2203 -75 1769 -75 
Q 1072 -75 642 372 
Q 213 819 213 1659 
z
M 791 1659 
Q 791 1022 1069 705 
Q 1347 388 1769 388 
Q 2188 388 2466 706 
Q 2744 1025 2744 1678 
Q 2744 2294 2464 2611 
Q 2184 2928 1769 2928 
Q 1347 2928 1069 2612 
Q 791 2297 791 1659 
z
" transform="scale(0.015625)"/>
        <path id="ArialMT-64" d="M 2575 0 
L 2575 419 
Q 2259 -75 1647 -75 
Q 1250 -75 917 144 
Q 584 363 401 755 
Q 219 1147 219 1656 
Q 219 2153 384 2558 
Q 550 2963 881 3178 
Q 1213 3394 1622 3394 
Q 1922 3394 2156 3267 
Q 2391 3141 2538 2938 
L 2538 4581 
L 3097 4581 
L 3097 0 
L 2575 0 
z
M 797 1656 
Q 797 1019 1065 703 
Q 1334 388 1700 388 
Q 2069 388 2326 689 
Q 2584 991 2584 1609 
Q 2584 2291 2321 2609 
Q 2059 2928 1675 2928 
Q 1300 2928 1048 2622 
Q 797 2316 797 1656 
z
" transform="scale(0.015625)"/>
        <path id="ArialMT-65" d="M 2694 1069 
L 3275 997 
Q 3138 488 2766 206 
Q 2394 -75 1816 -75 
Q 1088 -75 661 373 
Q 234 822 234 1631 
Q 234 2469 665 2931 
Q 1097 3394 1784 3394 
Q 2450 3394 2872 2941 
Q 3294 2488 3294 1666 
Q 3294 1616 3291 1516 
L 816 1516 
Q 847 969 1125 678 
Q 1403 388 1819 388 
Q 2128 388 2347 550 
Q 2566 713 2694 1069 
z
M 847 1978 
L 2700 1978 
Q 2663 2397 2488 2606 
Q 2219 2931 1791 2931 
Q 1403 2931 1139 2672 
Q 875 2413 847 1978 
z
" transform="scale(0.015625)"/>
        <path id="ArialMT-73" d="M 197 991 
L 753 1078 
Q 800 744 1014 566 
Q 1228 388 1613 388 
Q 2000 388 2187 545 
Q 2375 703 2375 916 
Q 2375 1106 2209 1216 
Q 2094 1291 1634 1406 
Q 1016 1563 777 1677 
Q 538 1791 414 1992 
Q 291 2194 291 2438 
Q 291 2659 392 2848 
Q 494 3038 669 3163 
Q 800 3259 1026 3326 
Q 1253 3394 1513 3394 
Q 1903 3394 2198 3281 
Q 2494 3169 2634 2976 
Q 2775 2784 2828 2463 
L 2278 2388 
Q 2241 2644 2061 2787 
Q 1881 2931 1553 2931 
Q 1166 2931 1000 2803 
Q 834 2675 834 2503 
Q 834 2394 903 2306 
Q 972 2216 1119 2156 
Q 1203 2125 1616 2013 
Q 2213 1853 2448 1751 
Q 2684 1650 2818 1456 
Q 2953 1263 2953 975 
Q 2953 694 2789 445 
Q 2625 197 2315 61 
Q 2006 -75 1616 -75 
Q 969 -75 630 194 
Q 291 463 197 991 
z
" transform="scale(0.015625)"/>
       </defs>
       <use xlink:href="#ArialMT-4d"/>
       <use xlink:href="#ArialMT-e9" transform="translate(83.300781 0)"/>
       <use xlink:href="#ArialMT-74" transform="translate(138.916016 0)"/>
       <use xlink:href="#ArialMT-68" transform="translate(166.699219 0)"/>
       <use xlink:href="#ArialMT-6f" transform="translate(222.314453 0)"/>
       <use xlink:href="#ArialMT-64" transform="translate(277.929688 0)"/>
       <use xlink:href="#ArialMT-65" transform="translate(333.544922 0)"/>
       <use xlink:href="#ArialMT-73" transform="translate(389.160156 0)"/>
      </g>
     </g>
    </g>
    <g id="xtick_2">
     <g id="line2d_2">
      <path d="M 162.02 190.609375 
L 84.61 56.531322 
" clip-path="url(#pc94fcb57cc)" style="fill: none; stroke: #cccccc; stroke-width: 0.8; stroke-linecap: round"/>
     </g>
     <g id="text_2">
      <!-- Attributs -->
      <g style="fill: #262626" transform="translate(59.270938 46.992123) scale(0.1 -0.1)">
       <defs>
        <path id="ArialMT-41" d="M -9 0 
L 1750 4581 
L 2403 4581 
L 4278 0 
L 3588 0 
L 3053 1388 
L 1138 1388 
L 634 0 
L -9 0 
z
M 1313 1881 
L 2866 1881 
L 2388 3150 
Q 2169 3728 2063 4100 
Q 1975 3659 1816 3225 
L 1313 1881 
z
" transform="scale(0.015625)"/>
        <path id="ArialMT-72" d="M 416 0 
L 416 3319 
L 922 3319 
L 922 2816 
Q 1116 3169 1280 3281 
Q 1444 3394 1641 3394 
Q 1925 3394 2219 3213 
L 2025 2691 
Q 1819 2813 1613 2813 
Q 1428 2813 1281 2702 
Q 1134 2591 1072 2394 
Q 978 2094 978 1738 
L 978 0 
L 416 0 
z
" transform="scale(0.015625)"/>
        <path id="ArialMT-69" d="M 425 3934 
L 425 4581 
L 988 4581 
L 988 3934 
L 425 3934 
z
M 425 0 
L 425 3319 
L 988 3319 
L 988 0 
L 425 0 
z
" transform="scale(0.015625)"/>
        <path id="ArialMT-62" d="M 941 0 
L 419 0 
L 419 4581 
L 981 4581 
L 981 2947 
Q 1338 3394 1891 3394 
Q 2197 3394 2470 3270 
Q 2744 3147 2920 2923 
Q 3097 2700 3197 2384 
Q 3297 2069 3297 1709 
Q 3297 856 2875 390 
Q 2453 -75 1863 -75 
Q 1275 -75 941 416 
L 941 0 
z
M 934 1684 
Q 934 1088 1097 822 
Q 1363 388 1816 388 
Q 2184 388 2453 708 
Q 2722 1028 2722 1663 
Q 2722 2313 2464 2622 
Q 2206 2931 1841 2931 
Q 1472 2931 1203 2611 
Q 934 2291 934 1684 
z
" transform="scale(0.015625)"/>
        <path id="ArialMT-75" d="M 2597 0 
L 2597 488 
Q 2209 -75 1544 -75 
Q 1250 -75 995 37 
Q 741 150 617 320 
Q 494 491 444 738 
Q 409 903 409 1263 
L 409 3319 
L 972 3319 
L 972 1478 
Q 972 1038 1006 884 
Q 1059 663 1231 536 
Q 1403 409 1656 409 
Q 1909 409 2131 539 
Q 2353 669 2445 892 
Q 2538 1116 2538 1541 
L 2538 3319 
L 3100 3319 
L 3100 0 
L 2597 0 
z
" transform="scale(0.015625)"/>
       </defs>
       <use xlink:href="#ArialMT-41"/>
       <use xlink:href="#ArialMT-74" transform="translate(66.699219 0)"/>
       <use xlink:href="#ArialMT-74" transform="translate(94.482422 0)"/>
       <use xlink:href="#ArialMT-72" transform="translate(122.265625 0)"/>
       <use xlink:href="#ArialMT-69" transform="translate(155.566406 0)"/>
       <use xlink:href="#ArialMT-62" transform="translate(177.783203 0)"/>
       <use xlink:href="#ArialMT-75" transform="translate(233.398438 0)"/>
       <use xlink:href="#ArialMT-74" transform="translate(289.013672 0)"/>
       <use xlink:href="#ArialMT-73" transform="translate(316.796875 0)"/>
      </g>
     </g>
    </g>
    <g id="xtick_3">
     <g id="line2d_3">
      <path d="M 162.02 190.609375 
L 84.61 324.687428 
" clip-path="url(#pc94fcb57cc)" style="fill: none; stroke: #cccccc; stroke-width: 0.8; stroke-linecap: round"/>
     </g>
     <g id="text_3">
      <!-- Lignes de code -->
      <g style="fill: #262626" transform="translate(43.696719 339.338346) scale(0.1 -0.1)">
       <defs>
        <path id="ArialMT-4c" d="M 469 0 
L 469 4581 
L 1075 4581 
L 1075 541 
L 3331 541 
L 3331 0 
L 469 0 
z
" transform="scale(0.015625)"/>
        <path id="ArialMT-67" d="M 319 -275 
L 866 -356 
Q 900 -609 1056 -725 
Q 1266 -881 1628 -881 
Q 2019 -881 2231 -725 
Q 2444 -569 2519 -288 
Q 2563 -116 2559 434 
Q 2191 0 1641 0 
Q 956 0 581 494 
Q 206 988 206 1678 
Q 206 2153 378 2554 
Q 550 2956 876 3175 
Q 1203 3394 1644 3394 
Q 2231 3394 2613 2919 
L 2613 3319 
L 3131 3319 
L 3131 450 
Q 3131 -325 2973 -648 
Q 2816 -972 2473 -1159 
Q 2131 -1347 1631 -1347 
Q 1038 -1347 672 -1080 
Q 306 -813 319 -275 
z
M 784 1719 
Q 784 1066 1043 766 
Q 1303 466 1694 466 
Q 2081 466 2343 764 
Q 2606 1063 2606 1700 
Q 2606 2309 2336 2618 
Q 2066 2928 1684 2928 
Q 1309 2928 1046 2623 
Q 784 2319 784 1719 
z
" transform="scale(0.015625)"/>
        <path id="ArialMT-6e" d="M 422 0 
L 422 3319 
L 928 3319 
L 928 2847 
Q 1294 3394 1984 3394 
Q 2284 3394 2536 3286 
Q 2788 3178 2913 3003 
Q 3038 2828 3088 2588 
Q 3119 2431 3119 2041 
L 3119 0 
L 2556 0 
L 2556 2019 
Q 2556 2363 2490 2533 
Q 2425 2703 2258 2804 
Q 2091 2906 1866 2906 
Q 1506 2906 1245 2678 
Q 984 2450 984 1813 
L 984 0 
L 422 0 
z
" transform="scale(0.015625)"/>
        <path id="ArialMT-20" transform="scale(0.015625)"/>
        <path id="ArialMT-63" d="M 2588 1216 
L 3141 1144 
Q 3050 572 2676 248 
Q 2303 -75 1759 -75 
Q 1078 -75 664 370 
Q 250 816 250 1647 
Q 250 2184 428 2587 
Q 606 2991 970 3192 
Q 1334 3394 1763 3394 
Q 2303 3394 2647 3120 
Q 2991 2847 3088 2344 
L 2541 2259 
Q 2463 2594 2264 2762 
Q 2066 2931 1784 2931 
Q 1359 2931 1093 2626 
Q 828 2322 828 1663 
Q 828 994 1084 691 
Q 1341 388 1753 388 
Q 2084 388 2306 591 
Q 2528 794 2588 1216 
z
" transform="scale(0.015625)"/>
       </defs>
       <use xlink:href="#ArialMT-4c"/>
       <use xlink:href="#ArialMT-69" transform="translate(55.615234 0)"/>
       <use xlink:href="#ArialMT-67" transform="translate(77.832031 0)"/>
       <use xlink:href="#ArialMT-6e" transform="translate(133.447266 0)"/>
       <use xlink:href="#ArialMT-65" transform="translate(189.0625 0)"/>
       <use xlink:href="#ArialMT-73" transform="translate(244.677734 0)"/>
       <use xlink:href="#ArialMT-20" transform="translate(294.677734 0)"/>
       <use xlink:href="#ArialMT-64" transform="translate(322.460938 0)"/>
       <use xlink:href="#ArialMT-65" transform="translate(378.076172 0)"/>
       <use xlink:href="#ArialMT-20" transform="translate(433.691406 0)"/>
       <use xlink:href="#ArialMT-63" transform="translate(461.474609 0)"/>
       <use xlink:href="#ArialMT-6f" transform="translate(511.474609 0)"/>
       <use xlink:href="#ArialMT-64" transform="translate(567.089844 0)"/>
       <use xlink:href="#ArialMT-65" transform="translate(622.705078 0)"/>
      </g>
     </g>
    </g>
   </g>
   <g id="matplotlib.axis_2">
    <g id="ytick_1">
     <g id="line2d_4">
      <path d="M 193.296768 190.609375 
C 193.296768 186.502148 192.487733 182.434858 190.915965 178.640274 
C 189.344198 174.845691 187.040263 171.397609 184.136015 168.49336 
C 181.231766 165.589112 177.783684 163.285177 173.989101 161.71341 
C 170.194517 160.141642 166.127227 159.332607 162.02 159.332607 
C 157.912773 159.332607 153.845483 160.141642 150.050899 161.71341 
C 146.256316 163.285177 142.808234 165.589112 139.903985 168.49336 
C 136.999737 171.397609 134.695802 174.845691 133.124035 178.640274 
C 131.552267 182.434858 130.743232 186.502148 130.743232 190.609375 
C 130.743232 194.716602 131.552267 198.783892 133.124035 202.578476 
C 134.695802 206.373059 136.999737 209.821141 139.903985 212.72539 
C 142.808234 215.629638 146.256316 217.933573 150.050899 219.50534 
C 153.845483 221.077108 157.912773 221.886143 162.02 221.886143 
C 166.127227 221.886143 170.194517 221.077108 173.989101 219.50534 
C 177.783684 217.933573 181.231766 215.629638 184.136015 212.72539 
C 187.040263 209.821141 189.344198 206.373059 190.915965 202.578476 
C 192.487733 198.783892 193.296768 194.716602 193.296768 190.609375 
" clip-path="url(#pc94fcb57cc)" style="fill: none; stroke: #cccccc; stroke-width: 0.8; stroke-linecap: round"/>
     </g>
     <g id="text_4">
      <!-- 10 -->
      <g style="fill: #262626" transform="translate(190.915965 176.652774) scale(0.1 -0.1)">
       <defs>
        <path id="ArialMT-31" d="M 2384 0 
L 1822 0 
L 1822 3584 
Q 1619 3391 1289 3197 
Q 959 3003 697 2906 
L 697 3450 
Q 1169 3672 1522 3987 
Q 1875 4303 2022 4600 
L 2384 4600 
L 2384 0 
z
" transform="scale(0.015625)"/>
        <path id="ArialMT-30" d="M 266 2259 
Q 266 3072 433 3567 
Q 600 4063 929 4331 
Q 1259 4600 1759 4600 
Q 2128 4600 2406 4451 
Q 2684 4303 2865 4023 
Q 3047 3744 3150 3342 
Q 3253 2941 3253 2259 
Q 3253 1453 3087 958 
Q 2922 463 2592 192 
Q 2263 -78 1759 -78 
Q 1097 -78 719 397 
Q 266 969 266 2259 
z
M 844 2259 
Q 844 1131 1108 757 
Q 1372 384 1759 384 
Q 2147 384 2411 759 
Q 2675 1134 2675 2259 
Q 2675 3391 2411 3762 
Q 2147 4134 1753 4134 
Q 1366 4134 1134 3806 
Q 844 3388 844 2259 
z
" transform="scale(0.015625)"/>
       </defs>
       <use xlink:href="#ArialMT-31"/>
       <use xlink:href="#ArialMT-30" transform="translate(55.615234 0)"/>
      </g>
     </g>
    </g>
    <g id="ytick_2">
     <g id="line2d_5">
      <path d="M 224.573535 190.609375 
C 224.573535 182.39492 222.955467 174.26034 219.811931 166.671173 
C 216.668395 159.082007 212.060526 152.185843 206.252029 146.377346 
C 200.443532 140.568849 193.547368 135.96098 185.958202 132.817444 
C 178.369035 129.673908 170.234455 128.05584 162.02 128.05584 
C 153.805545 128.05584 145.670965 129.673908 138.081798 132.817444 
C 130.492632 135.96098 123.596468 140.568849 117.787971 146.377346 
C 111.979474 152.185843 107.371605 159.082007 104.228069 166.671173 
C 101.084533 174.26034 99.466465 182.39492 99.466465 190.609375 
C 99.466465 198.82383 101.084533 206.95841 104.228069 214.547577 
C 107.371605 222.136743 111.979474 229.032907 117.787971 234.841404 
C 123.596468 240.649901 130.492632 245.25777 138.081798 248.401306 
C 145.670965 251.544842 153.805545 253.16291 162.02 253.16291 
C 170.234455 253.16291 178.369035 251.544842 185.958202 248.401306 
C 193.547368 245.25777 200.443532 240.649901 206.252029 234.841404 
C 212.060526 229.032907 216.668395 222.136743 219.811931 214.547577 
C 222.955467 206.95841 224.573535 198.82383 224.573535 190.609375 
" clip-path="url(#pc94fcb57cc)" style="fill: none; stroke: #cccccc; stroke-width: 0.8; stroke-linecap: round"/>
     </g>
     <g id="text_5">
      <!-- 20 -->
      <g style="fill: #262626" transform="translate(219.811931 164.683673) scale(0.1 -0.1)">
       <defs>
        <path id="ArialMT-32" d="M 3222 541 
L 3222 0 
L 194 0 
Q 188 203 259 391 
Q 375 700 629 1000 
Q 884 1300 1366 1694 
Q 2113 2306 2375 2664 
Q 2638 3022 2638 3341 
Q 2638 3675 2398 3904 
Q 2159 4134 1775 4134 
Q 1369 4134 1125 3890 
Q 881 3647 878 3216 
L 300 3275 
Q 359 3922 746 4261 
Q 1134 4600 1788 4600 
Q 2447 4600 2831 4234 
Q 3216 3869 3216 3328 
Q 3216 3053 3103 2787 
Q 2991 2522 2730 2228 
Q 2469 1934 1863 1422 
Q 1356 997 1212 845 
Q 1069 694 975 541 
L 3222 541 
z
" transform="scale(0.015625)"/>
       </defs>
       <use xlink:href="#ArialMT-32"/>
       <use xlink:href="#ArialMT-30" transform="translate(55.615234 0)"/>
      </g>
     </g>
    </g>
    <g id="ytick_3">
     <g id="line2d_6">
      <path d="M 255.850303 190.609375 
C 255.850303 178.287693 253.4232 166.085823 248.707896 154.702073 
C 243.992593 143.318322 237.080789 132.974077 228.368044 124.261331 
C 219.655298 115.548586 209.311053 108.636782 197.927302 103.921479 
C 186.543552 99.206175 174.341682 96.779072 162.02 96.779072 
C 149.698318 96.779072 137.496448 99.206175 126.112698 103.921479 
C 114.728947 108.636782 104.384702 115.548586 95.671956 124.261331 
C 86.959211 132.974077 80.047407 143.318322 75.332104 154.702073 
C 70.6168 166.085823 68.189697 178.287693 68.189697 190.609375 
C 68.189697 202.931057 70.6168 215.132927 75.332104 226.516677 
C 80.047407 237.900428 86.959211 248.244673 95.671956 256.957419 
C 104.384702 265.670164 114.728947 272.581968 126.112698 277.297271 
C 137.496448 282.012575 149.698318 284.439678 162.02 284.439678 
C 174.341682 284.439678 186.543552 282.012575 197.927302 277.297271 
C 209.311053 272.581968 219.655298 265.670164 228.368044 256.957419 
C 237.080789 248.244673 243.992593 237.900428 248.707896 226.516677 
C 253.4232 215.132927 255.850303 202.931057 255.850303 190.609375 
" clip-path="url(#pc94fcb57cc)" style="fill: none; stroke: #cccccc; stroke-width: 0.8; stroke-linecap: round"/>
     </g>
     <g id="text_6">
      <!-- 30 -->
      <g style="fill: #262626" transform="translate(248.707896 152.714573) scale(0.1 -0.1)">
       <defs>
        <path id="ArialMT-33" d="M 269 1209 
L 831 1284 
Q 928 806 1161 595 
Q 1394 384 1728 384 
Q 2125 384 2398 659 
Q 2672 934 2672 1341 
Q 2672 1728 2419 1979 
Q 2166 2231 1775 2231 
Q 1616 2231 1378 2169 
L 1441 2663 
Q 1497 2656 1531 2656 
Q 1891 2656 2178 2843 
Q 2466 3031 2466 3422 
Q 2466 3731 2256 3934 
Q 2047 4138 1716 4138 
Q 1388 4138 1169 3931 
Q 950 3725 888 3313 
L 325 3413 
Q 428 3978 793 4289 
Q 1159 4600 1703 4600 
Q 2078 4600 2393 4439 
Q 2709 4278 2876 4000 
Q 3044 3722 3044 3409 
Q 3044 3113 2884 2869 
Q 2725 2625 2413 2481 
Q 2819 2388 3044 2092 
Q 3269 1797 3269 1353 
Q 3269 753 2831 336 
Q 2394 -81 1725 -81 
Q 1122 -81 723 278 
Q 325 638 269 1209 
z
" transform="scale(0.015625)"/>
       </defs>
       <use xlink:href="#ArialMT-33"/>
       <use xlink:href="#ArialMT-30" transform="translate(55.615234 0)"/>
      </g>
     </g>
    </g>
    <g id="ytick_4">
     <g id="line2d_7">
      <path d="M 287.127071 190.609375 
C 287.127071 174.180465 283.890934 157.911305 277.603862 142.732972 
C 271.31679 127.554638 262.101052 113.762311 250.484058 102.145317 
C 238.867064 90.528323 225.074737 81.312585 209.896403 75.025513 
C 194.71807 68.738441 178.44891 65.502304 162.02 65.502304 
C 145.59109 65.502304 129.32193 68.738441 114.143597 75.025513 
C 98.965263 81.312585 85.172936 90.528323 73.555942 102.145317 
C 61.938948 113.762311 52.72321 127.554638 46.436138 142.732972 
C 40.149066 157.911305 36.912929 174.180465 36.912929 190.609375 
C 36.912929 207.038285 40.149066 223.307445 46.436138 238.485778 
C 52.72321 253.664112 61.938948 267.456439 73.555942 279.073433 
C 85.172936 290.690427 98.965263 299.906165 114.143597 306.193237 
C 129.32193 312.480309 145.59109 315.716446 162.02 315.716446 
C 178.44891 315.716446 194.71807 312.480309 209.896403 306.193237 
C 225.074737 299.906165 238.867064 290.690427 250.484058 279.073433 
C 262.101052 267.456439 271.31679 253.664112 277.603862 238.485778 
C 283.890934 223.307445 287.127071 207.038285 287.127071 190.609375 
" clip-path="url(#pc94fcb57cc)" style="fill: none; stroke: #cccccc; stroke-width: 0.8; stroke-linecap: round"/>
     </g>
     <g id="text_7">
      <!-- 40 -->
      <g style="fill: #262626" transform="translate(277.603862 140.745472) scale(0.1 -0.1)">
       <defs>
        <path id="ArialMT-34" d="M 2069 0 
L 2069 1097 
L 81 1097 
L 81 1613 
L 2172 4581 
L 2631 4581 
L 2631 1613 
L 3250 1613 
L 3250 1097 
L 2631 1097 
L 2631 0 
L 2069 0 
z
M 2069 1613 
L 2069 3678 
L 634 1613 
L 2069 1613 
z
" transform="scale(0.015625)"/>
       </defs>
       <use xlink:href="#ArialMT-34"/>
       <use xlink:href="#ArialMT-30" transform="translate(55.615234 0)"/>
      </g>
     </g>
    </g>
   </g>
   <g id="patch_3">
    <path d="M 183.913737 190.609375 
L 158.892323 185.19208 
L 91.647273 312.498514 
z
" clip-path="url(#pc94fcb57cc)" style="fill: #3b82f6; opacity: 0.25; stroke: #3b82f6; stroke-linejoin: miter"/>
   </g>
   <g id="line2d_8">
    <path d="M 183.913737 190.609375 
L 158.892323 185.19208 
L 91.647273 312.498514 
L 183.913737 190.609375 
" clip-path="url(#pc94fcb57cc)" style="fill: none; stroke: #3b82f6; stroke-width: 2; stroke-linecap: round"/>
    <defs>
     <path id="m48349d99c2" d="M 0 3 
C 0.795609 3 1.55874 2.683901 2.12132 2.12132 
C 2.683901 1.55874 3 0.795609 3 0 
C 3 -0.795609 2.683901 -1.55874 2.12132 -2.12132 
C 1.55874 -2.683901 0.795609 -3 0 -3 
C -0.795609 -3 -1.55874 -2.683901 -2.12132 -2.12132 
C -2.683901 -1.55874 -3 -0.795609 -3 0 
C -3 0.795609 -2.683901 1.55874 -2.12132 2.12132 
C -1.55874 2.683901 -0.795609 3 0 3 
z
" style="stroke: #3b82f6"/>
    </defs>
    <g clip-path="url(#pc94fcb57cc)">
     <use xlink:href="#m48349d99c2" x="183.913737" y="190.609375" style="fill: #3b82f6; stroke: #3b82f6"/>
     <use xlink:href="#m48349d99c2" x="158.892323" y="185.19208" style="fill: #3b82f6; stroke: #3b82f6"/>
     <use xlink:href="#m48349d99c2" x="91.647273" y="312.498514" style="fill: #3b82f6; stroke: #3b82f6"/>
     <use xlink:href="#m48349d99c2" x="183.913737" y="190.609375" style="fill: #3b82f6; stroke: #3b82f6"/>
    </g>
   </g>
   <g id="patch_4">
    <path d="M 316.84 190.609375 
C 316.84 170.278599 312.83528 150.145514 305.055029 131.362326 
C 297.274778 112.579138 285.870302 95.511133 271.494272 81.135103 
C 257.118242 66.759073 240.050237 55.354597 221.267049 47.574346 
C 202.483861 39.794095 182.350776 35.789375 162.02 35.789375 
C 141.689224 35.789375 121.556139 39.794095 102.772951 47.574346 
C 83.989763 55.354597 66.921758 66.759073 52.545728 81.135103 
C 38.169698 95.511133 26.765222 112.579138 18.984971 131.362326 
C 11.20472 150.145514 7.2 170.278599 7.2 190.609375 
C 7.2 210.940151 11.20472 231.073236 18.984971 249.856424 
C 26.765222 268.639612 38.169698 285.707617 52.545728 300.083647 
C 66.921758 314.459677 83.989763 325.864153 102.772951 333.644404 
C 121.556139 341.424655 141.689224 345.429375 162.02 345.429375 
C 182.350776 345.429375 202.483861 341.424655 221.267049 333.644404 
C 240.050237 325.864153 257.118242 314.459677 271.494272 300.083647 
C 285.870302 285.707617 297.274778 268.639612 305.055029 249.856424 
C 312.83528 231.073236 316.84 210.940151 316.84 190.609375 
" style="fill: none; stroke: #cccccc; stroke-width: 0.8; stroke-linejoin: miter; stroke-linecap: square"/>
   </g>
   <g id="text_8">
    <!-- NotesManager -->
    <g style="fill: #262626" transform="translate(120.679062 15.789375) scale(0.12 -0.12)">
     <defs>
      <path id="Arial-BoldMT-4e" d="M 475 0 
L 475 4581 
L 1375 4581 
L 3250 1522 
L 3250 4581 
L 4109 4581 
L 4109 0 
L 3181 0 
L 1334 2988 
L 1334 0 
L 475 0 
z
" transform="scale(0.015625)"/>
      <path id="Arial-BoldMT-6f" d="M 256 1706 
Q 256 2144 472 2553 
Q 688 2963 1083 3178 
Q 1478 3394 1966 3394 
Q 2719 3394 3200 2905 
Q 3681 2416 3681 1669 
Q 3681 916 3195 420 
Q 2709 -75 1972 -75 
Q 1516 -75 1102 131 
Q 688 338 472 736 
Q 256 1134 256 1706 
z
M 1156 1659 
Q 1156 1166 1390 903 
Q 1625 641 1969 641 
Q 2313 641 2545 903 
Q 2778 1166 2778 1666 
Q 2778 2153 2545 2415 
Q 2313 2678 1969 2678 
Q 1625 2678 1390 2415 
Q 1156 2153 1156 1659 
z
" transform="scale(0.015625)"/>
      <path id="Arial-BoldMT-74" d="M 1981 3319 
L 1981 2619 
L 1381 2619 
L 1381 1281 
Q 1381 875 1398 808 
Q 1416 741 1477 697 
Q 1538 653 1625 653 
Q 1747 653 1978 738 
L 2053 56 
Q 1747 -75 1359 -75 
Q 1122 -75 931 4 
Q 741 84 652 211 
Q 563 338 528 553 
Q 500 706 500 1172 
L 500 2619 
L 97 2619 
L 97 3319 
L 500 3319 
L 500 3978 
L 1381 4491 
L 1381 3319 
L 1981 3319 
z
" transform="scale(0.015625)"/>
      <path id="Arial-BoldMT-65" d="M 2381 1056 
L 3256 909 
Q 3088 428 2723 176 
Q 2359 -75 1813 -75 
Q 947 -75 531 491 
Q 203 944 203 1634 
Q 203 2459 634 2926 
Q 1066 3394 1725 3394 
Q 2466 3394 2894 2905 
Q 3322 2416 3303 1406 
L 1103 1406 
Q 1113 1016 1316 798 
Q 1519 581 1822 581 
Q 2028 581 2168 693 
Q 2309 806 2381 1056 
z
M 2431 1944 
Q 2422 2325 2234 2523 
Q 2047 2722 1778 2722 
Q 1491 2722 1303 2513 
Q 1116 2303 1119 1944 
L 2431 1944 
z
" transform="scale(0.015625)"/>
      <path id="Arial-BoldMT-73" d="M 150 947 
L 1031 1081 
Q 1088 825 1259 692 
Q 1431 559 1741 559 
Q 2081 559 2253 684 
Q 2369 772 2369 919 
Q 2369 1019 2306 1084 
Q 2241 1147 2013 1200 
Q 950 1434 666 1628 
Q 272 1897 272 2375 
Q 272 2806 612 3100 
Q 953 3394 1669 3394 
Q 2350 3394 2681 3172 
Q 3013 2950 3138 2516 
L 2309 2363 
Q 2256 2556 2107 2659 
Q 1959 2763 1684 2763 
Q 1338 2763 1188 2666 
Q 1088 2597 1088 2488 
Q 1088 2394 1175 2328 
Q 1294 2241 1995 2081 
Q 2697 1922 2975 1691 
Q 3250 1456 3250 1038 
Q 3250 581 2869 253 
Q 2488 -75 1741 -75 
Q 1063 -75 667 200 
Q 272 475 150 947 
z
" transform="scale(0.015625)"/>
      <path id="Arial-BoldMT-4d" d="M 453 0 
L 453 4581 
L 1838 4581 
L 2669 1456 
L 3491 4581 
L 4878 4581 
L 4878 0 
L 4019 0 
L 4019 3606 
L 3109 0 
L 2219 0 
L 1313 3606 
L 1313 0 
L 453 0 
z
" transform="scale(0.015625)"/>
      <path id="Arial-BoldMT-61" d="M 1116 2306 
L 319 2450 
Q 453 2931 781 3162 
Q 1109 3394 1756 3394 
Q 2344 3394 2631 3255 
Q 2919 3116 3036 2902 
Q 3153 2688 3153 2116 
L 3144 1091 
Q 3144 653 3186 445 
Q 3228 238 3344 0 
L 2475 0 
Q 2441 88 2391 259 
Q 2369 338 2359 363 
Q 2134 144 1878 34 
Q 1622 -75 1331 -75 
Q 819 -75 523 203 
Q 228 481 228 906 
Q 228 1188 362 1408 
Q 497 1628 739 1745 
Q 981 1863 1438 1950 
Q 2053 2066 2291 2166 
L 2291 2253 
Q 2291 2506 2166 2614 
Q 2041 2722 1694 2722 
Q 1459 2722 1328 2630 
Q 1197 2538 1116 2306 
z
M 2291 1594 
Q 2122 1538 1756 1459 
Q 1391 1381 1278 1306 
Q 1106 1184 1106 997 
Q 1106 813 1243 678 
Q 1381 544 1594 544 
Q 1831 544 2047 700 
Q 2206 819 2256 991 
Q 2291 1103 2291 1419 
L 2291 1594 
z
" transform="scale(0.015625)"/>
      <path id="Arial-BoldMT-6e" d="M 3478 0 
L 2600 0 
L 2600 1694 
Q 2600 2231 2544 2389 
Q 2488 2547 2361 2634 
Q 2234 2722 2056 2722 
Q 1828 2722 1647 2597 
Q 1466 2472 1398 2265 
Q 1331 2059 1331 1503 
L 1331 0 
L 453 0 
L 453 3319 
L 1269 3319 
L 1269 2831 
Q 1703 3394 2363 3394 
Q 2653 3394 2893 3289 
Q 3134 3184 3257 3021 
Q 3381 2859 3429 2653 
Q 3478 2447 3478 2063 
L 3478 0 
z
" transform="scale(0.015625)"/>
      <path id="Arial-BoldMT-67" d="M 378 -219 
L 1381 -341 
Q 1406 -516 1497 -581 
Q 1622 -675 1891 -675 
Q 2234 -675 2406 -572 
Q 2522 -503 2581 -350 
Q 2622 -241 2622 53 
L 2622 538 
Q 2228 0 1628 0 
Q 959 0 569 566 
Q 263 1013 263 1678 
Q 263 2513 664 2953 
Q 1066 3394 1663 3394 
Q 2278 3394 2678 2853 
L 2678 3319 
L 3500 3319 
L 3500 341 
Q 3500 -247 3403 -537 
Q 3306 -828 3131 -993 
Q 2956 -1159 2664 -1253 
Q 2372 -1347 1925 -1347 
Q 1081 -1347 728 -1058 
Q 375 -769 375 -325 
Q 375 -281 378 -219 
z
M 1163 1728 
Q 1163 1200 1367 954 
Q 1572 709 1872 709 
Q 2194 709 2416 961 
Q 2638 1213 2638 1706 
Q 2638 2222 2425 2472 
Q 2213 2722 1888 2722 
Q 1572 2722 1367 2476 
Q 1163 2231 1163 1728 
z
" transform="scale(0.015625)"/>
      <path id="Arial-BoldMT-72" d="M 1300 0 
L 422 0 
L 422 3319 
L 1238 3319 
L 1238 2847 
Q 1447 3181 1614 3287 
Q 1781 3394 1994 3394 
Q 2294 3394 2572 3228 
L 2300 2463 
Q 2078 2606 1888 2606 
Q 1703 2606 1575 2504 
Q 1447 2403 1373 2137 
Q 1300 1872 1300 1025 
L 1300 0 
z
" transform="scale(0.015625)"/>
     </defs>
     <use xlink:href="#Arial-BoldMT-4e"/>
     <use xlink:href="#Arial-BoldMT-6f" transform="translate(72.216797 0)"/>
     <use xlink:href="#Arial-BoldMT-74" transform="translate(133.300781 0)"/>
     <use xlink:href="#Arial-BoldMT-65" transform="translate(166.601562 0)"/>
     <use xlink:href="#Arial-BoldMT-73" transform="translate(222.216797 0)"/>
     <use xlink:href="#Arial-BoldMT-4d" transform="translate(277.832031 0)"/>
     <use xlink:href="#Arial-BoldMT-61" transform="translate(361.132812 0)"/>
     <use xlink:href="#Arial-BoldMT-6e" transform="translate(416.748047 0)"/>
     <use xlink:href="#Arial-BoldMT-61" transform="translate(477.832031 0)"/>
     <use xlink:href="#Arial-BoldMT-67" transform="translate(533.447266 0)"/>
     <use xlink:href="#Arial-BoldMT-65" transform="translate(594.53125 0)"/>
     <use xlink:href="#Arial-BoldMT-72" transform="translate(650.146484 0)"/>
    </g>
   </g>
  </g>
  <g id="axes_2">
   <g id="patch_5">
    <path d="M 673.24 190.609375 
C 673.24 170.278599 669.23528 150.145514 661.455029 131.362326 
C 653.674778 112.579138 642.270302 95.511133 627.894272 81.135103 
C 613.518242 66.759073 596.450237 55.354597 577.667049 47.574346 
C 558.883861 39.794095 538.750776 35.789375 518.42 35.789375 
C 498.089224 35.789375 477.956139 39.794095 459.172951 47.574346 
C 440.389763 55.354597 423.321758 66.759073 408.945728 81.135103 
C 394.569698 95.511133 383.165222 112.579138 375.384971 131.362326 
C 367.60472 150.145514 363.6 170.278599 363.6 190.609375 
C 363.6 210.940151 367.60472 231.073236 375.384971 249.856424 
C 383.165222 268.639612 394.569698 285.707617 408.945728 300.083647 
C 423.321758 314.459677 440.389763 325.864153 459.172951 333.644404 
C 477.956139 341.424655 498.089224 345.429375 518.42 345.429375 
C 538.750776 345.429375 558.883861 341.424655 577.667049 333.644404 
C 596.450237 325.864153 613.518242 314.459677 627.894272 300.083647 
C 642.270302 285.707617 653.674778 268.639612 661.455029 249.856424 
C 669.23528 231.073236 673.24 210.940151 673.24 190.609375 
M 518.42 190.609375 
C 518.42 190.609375 518.42 190.609375 518.42 190.609375 
C 518.42 190.609375 518.42 190.609375 518.42 190.609375 
C 518.42 190.609375 518.42 190.609375 518.42 190.609375 
C 518.42 190.609375 518.42 190.609375 518.42 190.609375 
C 518.42 190.609375 518.42 190.609375 518.42 190.609375 
C 518.42 190.609375 518.42 190.609375 518.42 190.609375 
C 518.42 190.609375 518.42 190.609375 518.42 190.609375 
C 518.42 190.609375 518.42 190.609375 518.42 190.609375 
C 518.42 190.609375 518.42 190.609375 518.42 190.609375 
C 518.42 190.609375 518.42 190.609375 518.42 190.609375 
C 518.42 190.609375 518.42 190.609375 518.42 190.609375 
C 518.42 190.609375 518.42 190.609375 518.42 190.609375 
C 518.42 190.609375 518.42 190.609375 518.42 190.609375 
C 518.42 190.609375 518.42 190.609375 518.42 190.609375 
C 518.42 190.609375 518.42 190.609375 518.42 190.609375 
C 518.42 190.609375 518.42 190.609375 518.42 190.609375 
z
" style="fill: #ffffff"/>
   </g>
   <g id="matplotlib.axis_3">
    <g id="xtick_4">
     <g id="line2d_9">
      <path d="M 518.42 190.609375 
L 673.24 190.609375 
" clip-path="url(#pee1ef27aa1)" style="fill: none; stroke: #cccccc; stroke-width: 0.8; stroke-linecap: round"/>
     </g>
     <g id="text_9">
      <!-- Méthodes -->
      <g style="fill: #262626" transform="translate(665.28375 193.194531) scale(0.1 -0.1)">
       <use xlink:href="#ArialMT-4d"/>
       <use xlink:href="#ArialMT-e9" transform="translate(83.300781 0)"/>
       <use xlink:href="#ArialMT-74" transform="translate(138.916016 0)"/>
       <use xlink:href="#ArialMT-68" transform="translate(166.699219 0)"/>
       <use xlink:href="#ArialMT-6f" transform="translate(222.314453 0)"/>
       <use xlink:href="#ArialMT-64" transform="translate(277.929688 0)"/>
       <use xlink:href="#ArialMT-65" transform="translate(333.544922 0)"/>
       <use xlink:href="#ArialMT-73" transform="translate(389.160156 0)"/>
      </g>
     </g>
    </g>
    <g id="xtick_5">
     <g id="line2d_10">
      <path d="M 518.42 190.609375 
L 441.01 56.531322 
" clip-path="url(#pee1ef27aa1)" style="fill: none; stroke: #cccccc; stroke-width: 0.8; stroke-linecap: round"/>
     </g>
     <g id="text_10">
      <!-- Attributs -->
      <g style="fill: #262626" transform="translate(415.670938 46.992123) scale(0.1 -0.1)">
       <use xlink:href="#ArialMT-41"/>
       <use xlink:href="#ArialMT-74" transform="translate(66.699219 0)"/>
       <use xlink:href="#ArialMT-74" transform="translate(94.482422 0)"/>
       <use xlink:href="#ArialMT-72" transform="translate(122.265625 0)"/>
       <use xlink:href="#ArialMT-69" transform="translate(155.566406 0)"/>
       <use xlink:href="#ArialMT-62" transform="translate(177.783203 0)"/>
       <use xlink:href="#ArialMT-75" transform="translate(233.398438 0)"/>
       <use xlink:href="#ArialMT-74" transform="translate(289.013672 0)"/>
       <use xlink:href="#ArialMT-73" transform="translate(316.796875 0)"/>
      </g>
     </g>
    </g>
    <g id="xtick_6">
     <g id="line2d_11">
      <path d="M 518.42 190.609375 
L 441.01 324.687428 
" clip-path="url(#pee1ef27aa1)" style="fill: none; stroke: #cccccc; stroke-width: 0.8; stroke-linecap: round"/>
     </g>
     <g id="text_11">
      <!-- Lignes de code -->
      <g style="fill: #262626" transform="translate(400.096719 339.338346) scale(0.1 -0.1)">
       <use xlink:href="#ArialMT-4c"/>
       <use xlink:href="#ArialMT-69" transform="translate(55.615234 0)"/>
       <use xlink:href="#ArialMT-67" transform="translate(77.832031 0)"/>
       <use xlink:href="#ArialMT-6e" transform="translate(133.447266 0)"/>
       <use xlink:href="#ArialMT-65" transform="translate(189.0625 0)"/>
       <use xlink:href="#ArialMT-73" transform="translate(244.677734 0)"/>
       <use xlink:href="#ArialMT-20" transform="translate(294.677734 0)"/>
       <use xlink:href="#ArialMT-64" transform="translate(322.460938 0)"/>
       <use xlink:href="#ArialMT-65" transform="translate(378.076172 0)"/>
       <use xlink:href="#ArialMT-20" transform="translate(433.691406 0)"/>
       <use xlink:href="#ArialMT-63" transform="translate(461.474609 0)"/>
       <use xlink:href="#ArialMT-6f" transform="translate(511.474609 0)"/>
       <use xlink:href="#ArialMT-64" transform="translate(567.089844 0)"/>
       <use xlink:href="#ArialMT-65" transform="translate(622.705078 0)"/>
      </g>
     </g>
    </g>
   </g>
   <g id="matplotlib.axis_4">
    <g id="ytick_5">
     <g id="line2d_12">
      <path d="M 549.696768 190.609375 
C 549.696768 186.502148 548.887733 182.434858 547.315965 178.640274 
C 545.744198 174.845691 543.440263 171.397609 540.536015 168.49336 
C 537.631766 165.589112 534.183684 163.285177 530.389101 161.71341 
C 526.594517 160.141642 522.527227 159.332607 518.42 159.332607 
C 514.312773 159.332607 510.245483 160.141642 506.450899 161.71341 
C 502.656316 163.285177 499.208234 165.589112 496.303985 168.49336 
C 493.399737 171.397609 491.095802 174.845691 489.524035 178.640274 
C 487.952267 182.434858 487.143232 186.502148 487.143232 190.609375 
C 487.143232 194.716602 487.952267 198.783892 489.524035 202.578476 
C 491.095802 206.373059 493.399737 209.821141 496.303985 212.72539 
C 499.208234 215.629638 502.656316 217.933573 506.450899 219.50534 
C 510.245483 221.077108 514.312773 221.886143 518.42 221.886143 
C 522.527227 221.886143 526.594517 221.077108 530.389101 219.50534 
C 534.183684 217.933573 537.631766 215.629638 540.536015 212.72539 
C 543.440263 209.821141 545.744198 206.373059 547.315965 202.578476 
C 548.887733 198.783892 549.696768 194.716602 549.696768 190.609375 
" clip-path="url(#pee1ef27aa1)" style="fill: none; stroke: #cccccc; stroke-width: 0.8; stroke-linecap: round"/>
     </g>
     <g id="text_12">
      <!-- 10 -->
      <g style="fill: #262626" transform="translate(547.315965 176.652774) scale(0.1 -0.1)">
       <use xlink:href="#ArialMT-31"/>
       <use xlink:href="#ArialMT-30" transform="translate(55.615234 0)"/>
      </g>
     </g>
    </g>
    <g id="ytick_6">
     <g id="line2d_13">
      <path d="M 580.973535 190.609375 
C 580.973535 182.39492 579.355467 174.26034 576.211931 166.671173 
C 573.068395 159.082007 568.460526 152.185843 562.652029 146.377346 
C 556.843532 140.568849 549.947368 135.96098 542.358202 132.817444 
C 534.769035 129.673908 526.634455 128.05584 518.42 128.05584 
C 510.205545 128.05584 502.070965 129.673908 494.481798 132.817444 
C 486.892632 135.96098 479.996468 140.568849 474.187971 146.377346 
C 468.379474 152.185843 463.771605 159.082007 460.628069 166.671173 
C 457.484533 174.26034 455.866465 182.39492 455.866465 190.609375 
C 455.866465 198.82383 457.484533 206.95841 460.628069 214.547577 
C 463.771605 222.136743 468.379474 229.032907 474.187971 234.841404 
C 479.996468 240.649901 486.892632 245.25777 494.481798 248.401306 
C 502.070965 251.544842 510.205545 253.16291 518.42 253.16291 
C 526.634455 253.16291 534.769035 251.544842 542.358202 248.401306 
C 549.947368 245.25777 556.843532 240.649901 562.652029 234.841404 
C 568.460526 229.032907 573.068395 222.136743 576.211931 214.547577 
C 579.355467 206.95841 580.973535 198.82383 580.973535 190.609375 
" clip-path="url(#pee1ef27aa1)" style="fill: none; stroke: #cccccc; stroke-width: 0.8; stroke-linecap: round"/>
     </g>
     <g id="text_13">
      <!-- 20 -->
      <g style="fill: #262626" transform="translate(576.211931 164.683673) scale(0.1 -0.1)">
       <use xlink:href="#ArialMT-32"/>
       <use xlink:href="#ArialMT-30" transform="translate(55.615234 0)"/>
      </g>
     </g>
    </g>
    <g id="ytick_7">
     <g id="line2d_14">
      <path d="M 612.250303 190.609375 
C 612.250303 178.287693 609.8232 166.085823 605.107896 154.702073 
C 600.392593 143.318322 593.480789 132.974077 584.768044 124.261331 
C 576.055298 115.548586 565.711053 108.636782 554.327302 103.921479 
C 542.943552 99.206175 530.741682 96.779072 518.42 96.779072 
C 506.098318 96.779072 493.896448 99.206175 482.512698 103.921479 
C 471.128947 108.636782 460.784702 115.548586 452.071956 124.261331 
C 443.359211 132.974077 436.447407 143.318322 431.732104 154.702073 
C 427.0168 166.085823 424.589697 178.287693 424.589697 190.609375 
C 424.589697 202.931057 427.0168 215.132927 431.732104 226.516677 
C 436.447407 237.900428 443.359211 248.244673 452.071956 256.957419 
C 460.784702 265.670164 471.128947 272.581968 482.512698 277.297271 
C 493.896448 282.012575 506.098318 284.439678 518.42 284.439678 
C 530.741682 284.439678 542.943552 282.012575 554.327302 277.297271 
C 565.711053 272.581968 576.055298 265.670164 584.768044 256.957419 
C 593.480789 248.244673 600.392593 237.900428 605.107896 226.516677 
C 609.8232 215.132927 612.250303 202.931057 612.250303 190.609375 
" clip-path="url(#pee1ef27aa1)" style="fill: none; stroke: #cccccc; stroke-width: 0.8; stroke-linecap: round"/>
     </g>
     <g id="text_14">
      <!-- 30 -->
      <g style="fill: #262626" transform="translate(605.107896 152.714573) scale(0.1 -0.1)">
       <use xlink:href="#ArialMT-33"/>
       <use xlink:href="#ArialMT-30" transform="translate(55.615234 0)"/>
      </g>
     </g>
    </g>
    <g id="ytick_8">
     <g id="line2d_15">
      <path d="M 643.527071 190.609375 
C 643.527071 174.180465 640.290934 157.911305 634.003862 142.732972 
C 627.71679 127.554638 618.501052 113.762311 606.884058 102.145317 
C 595.267064 90.528323 581.474737 81.312585 566.296403 75.025513 
C 551.11807 68.738441 534.84891 65.502304 518.42 65.502304 
C 501.99109 65.502304 485.72193 68.738441 470.543597 75.025513 
C 455.365263 81.312585 441.572936 90.528323 429.955942 102.145317 
C 418.338948 113.762311 409.12321 127.554638 402.836138 142.732972 
C 396.549066 157.911305 393.312929 174.180465 393.312929 190.609375 
C 393.312929 207.038285 396.549066 223.307445 402.836138 238.485778 
C 409.12321 253.664112 418.338948 267.456439 429.955942 279.073433 
C 441.572936 290.690427 455.365263 299.906165 470.543597 306.193237 
C 485.72193 312.480309 501.99109 315.716446 518.42 315.716446 
C 534.84891 315.716446 551.11807 312.480309 566.296403 306.193237 
C 581.474737 299.906165 595.267064 290.690427 606.884058 279.073433 
C 618.501052 267.456439 627.71679 253.664112 634.003862 238.485778 
C 640.290934 223.307445 643.527071 207.038285 643.527071 190.609375 
" clip-path="url(#pee1ef27aa1)" style="fill: none; stroke: #cccccc; stroke-width: 0.8; stroke-linecap: round"/>
     </g>
     <g id="text_15">
      <!-- 40 -->
      <g style="fill: #262626" transform="translate(634.003862 140.745472) scale(0.1 -0.1)">
       <use xlink:href="#ArialMT-34"/>
       <use xlink:href="#ArialMT-30" transform="translate(55.615234 0)"/>
      </g>
     </g>
    </g>
   </g>
   <g id="patch_6">
    <path d="M 534.058384 190.609375 
L 515.292323 185.19208 
L 480.887879 255.616916 
z
" clip-path="url(#pee1ef27aa1)" style="fill: #10b981; opacity: 0.25; stroke: #10b981; stroke-linejoin: miter"/>
   </g>
   <g id="line2d_16">
    <path d="M 534.058384 190.609375 
L 515.292323 185.19208 
L 480.887879 255.616916 
L 534.058384 190.609375 
" clip-path="url(#pee1ef27aa1)" style="fill: none; stroke: #10b981; stroke-width: 2; stroke-linecap: round"/>
    <defs>
     <path id="m79bb6120ce" d="M 0 3 
C 0.795609 3 1.55874 2.683901 2.12132 2.12132 
C 2.683901 1.55874 3 0.795609 3 0 
C 3 -0.795609 2.683901 -1.55874 2.12132 -2.12132 
C 1.55874 -2.683901 0.795609 -3 0 -3 
C -0.795609 -3 -1.55874 -2.683901 -2.12132 -2.12132 
C -2.683901 -1.55874 -3 -0.795609 -3 0 
C -3 0.795609 -2.683901 1.55874 -2.12132 2.12132 
C -1.55874 2.683901 -0.795609 3 0 3 
z
" style="stroke: #10b981"/>
    </defs>
    <g clip-path="url(#pee1ef27aa1)">
     <use xlink:href="#m79bb6120ce" x="534.058384" y="190.609375" style="fill: #10b981; stroke: #10b981"/>
     <use xlink:href="#m79bb6120ce" x="515.292323" y="185.19208" style="fill: #10b981; stroke: #10b981"/>
     <use xlink:href="#m79bb6120ce" x="480.887879" y="255.616916" style="fill: #10b981; stroke: #10b981"/>
     <use xlink:href="#m79bb6120ce" x="534.058384" y="190.609375" style="fill: #10b981; stroke: #10b981"/>
    </g>
   </g>
   <g id="patch_7">
    <path d="M 673.24 190.609375 
C 673.24 170.278599 669.23528 150.145514 661.455029 131.362326 
C 653.674778 112.579138 642.270302 95.511133 627.894272 81.135103 
C 613.518242 66.759073 596.450237 55.354597 577.667049 47.574346 
C 558.883861 39.794095 538.750776 35.789375 518.42 35.789375 
C 498.089224 35.789375 477.956139 39.794095 459.172951 47.574346 
C 440.389763 55.354597 423.321758 66.759073 408.945728 81.135103 
C 394.569698 95.511133 383.165222 112.579138 375.384971 131.362326 
C 367.60472 150.145514 363.6 170.278599 363.6 190.609375 
C 363.6 210.940151 367.60472 231.073236 375.384971 249.856424 
C 383.165222 268.639612 394.569698 285.707617 408.945728 300.083647 
C 423.321758 314.459677 440.389763 325.864153 459.172951 333.644404 
C 477.956139 341.424655 498.089224 345.429375 518.42 345.429375 
C 538.750776 345.429375 558.883861 341.424655 577.667049 333.644404 
C 596.450237 325.864153 613.518242 314.459677 627.894272 300.083647 
C 642.270302 285.707617 653.674778 268.639612 661.455029 249.856424 
C 669.23528 231.073236 673.24 210.940151 673.24 190.609375 
" style="fill: none; stroke: #cccccc; stroke-width: 0.8; stroke-linejoin: miter; stroke-linecap: square"/>
   </g>
   <g id="text_16">
    <!-- Person -->
    <g style="fill: #262626" transform="translate(498.08 15.789375) scale(0.12 -0.12)">
     <defs>
      <path id="Arial-BoldMT-50" d="M 466 0 
L 466 4581 
L 1950 4581 
Q 2794 4581 3050 4513 
Q 3444 4409 3709 4064 
Q 3975 3719 3975 3172 
Q 3975 2750 3822 2462 
Q 3669 2175 3433 2011 
Q 3197 1847 2953 1794 
Q 2622 1728 1994 1728 
L 1391 1728 
L 1391 0 
L 466 0 
z
M 1391 3806 
L 1391 2506 
L 1897 2506 
Q 2444 2506 2628 2578 
Q 2813 2650 2917 2803 
Q 3022 2956 3022 3159 
Q 3022 3409 2875 3571 
Q 2728 3734 2503 3775 
Q 2338 3806 1838 3806 
L 1391 3806 
z
" transform="scale(0.015625)"/>
     </defs>
     <use xlink:href="#Arial-BoldMT-50"/>
     <use xlink:href="#Arial-BoldMT-65" transform="translate(66.699219 0)"/>
     <use xlink:href="#Arial-BoldMT-72" transform="translate(122.314453 0)"/>
     <use xlink:href="#Arial-BoldMT-73" transform="translate(161.230469 0)"/>
     <use xlink:href="#Arial-BoldMT-6f" transform="translate(216.845703 0)"/>
     <use xlink:href="#Arial-BoldMT-6e" transform="translate(277.929688 0)"/>
    </g>
   </g>
  </g>
  <g id="axes_3">
   <g id="patch_8">
    <path d="M 1029.64 190.609375 
C 1029.64 170.278599 1025.63528 150.145514 1017.855029 131.362326 
C 1010.074778 112.579138 998.670302 95.511133 984.294272 81.135103 
C 969.918242 66.759073 952.850237 55.354597 934.067049 47.574346 
C 915.283861 39.794095 895.150776 35.789375 874.82 35.789375 
C 854.489224 35.789375 834.356139 39.794095 815.572951 47.574346 
C 796.789763 55.354597 779.721758 66.759073 765.345728 81.135103 
C 750.969698 95.511133 739.565222 112.579138 731.784971 131.362326 
C 724.00472 150.145514 720 170.278599 720 190.609375 
C 720 210.940151 724.00472 231.073236 731.784971 249.856424 
C 739.565222 268.639612 750.969698 285.707617 765.345728 300.083647 
C 779.721758 314.459677 796.789763 325.864153 815.572951 333.644404 
C 834.356139 341.424655 854.489224 345.429375 874.82 345.429375 
C 895.150776 345.429375 915.283861 341.424655 934.067049 333.644404 
C 952.850237 325.864153 969.918242 314.459677 984.294272 300.083647 
C 998.670302 285.707617 1010.074778 268.639612 1017.855029 249.856424 
C 1025.63528 231.073236 1029.64 210.940151 1029.64 190.609375 
M 874.82 190.609375 
C 874.82 190.609375 874.82 190.609375 874.82 190.609375 
C 874.82 190.609375 874.82 190.609375 874.82 190.609375 
C 874.82 190.609375 874.82 190.609375 874.82 190.609375 
C 874.82 190.609375 874.82 190.609375 874.82 190.609375 
C 874.82 190.609375 874.82 190.609375 874.82 190.609375 
C 874.82 190.609375 874.82 190.609375 874.82 190.609375 
C 874.82 190.609375 874.82 190.609375 874.82 190.609375 
C 874.82 190.609375 874.82 190.609375 874.82 190.609375 
C 874.82 190.609375 874.82 190.609375 874.82 190.609375 
C 874.82 190.609375 874.82 190.609375 874.82 190.609375 
C 874.82 190.609375 874.82 190.609375 874.82 190.609375 
C 874.82 190.609375 874.82 190.609375 874.82 190.609375 
C 874.82 190.609375 874.82 190.609375 874.82 190.609375 
C 874.82 190.609375 874.82 190.609375 874.82 190.609375 
C 874.82 190.609375 874.82 190.609375 874.82 190.609375 
C 874.82 190.609375 874.82 190.609375 874.82 190.609375 
z
" style="fill: #ffffff"/>
   </g>
   <g id="matplotlib.axis_5">
    <g id="xtick_7">
     <g id="line2d_17">
      <path d="M 874.82 190.609375 
L 1029.64 190.609375 
" clip-path="url(#p585ddc21c2)" style="fill: none; stroke: #cccccc; stroke-width: 0.8; stroke-linecap: round"/>
     </g>
     <g id="text_17">
      <!-- Méthodes -->
      <g style="fill: #262626" transform="translate(1021.68375 193.194531) scale(0.1 -0.1)">
       <use xlink:href="#ArialMT-4d"/>
       <use xlink:href="#ArialMT-e9" transform="translate(83.300781 0)"/>
       <use xlink:href="#ArialMT-74" transform="translate(138.916016 0)"/>
       <use xlink:href="#ArialMT-68" transform="translate(166.699219 0)"/>
       <use xlink:href="#ArialMT-6f" transform="translate(222.314453 0)"/>
       <use xlink:href="#ArialMT-64" transform="translate(277.929688 0)"/>
       <use xlink:href="#ArialMT-65" transform="translate(333.544922 0)"/>
       <use xlink:href="#ArialMT-73" transform="translate(389.160156 0)"/>
      </g>
     </g>
    </g>
    <g id="xtick_8">
     <g id="line2d_18">
      <path d="M 874.82 190.609375 
L 797.41 56.531322 
" clip-path="url(#p585ddc21c2)" style="fill: none; stroke: #cccccc; stroke-width: 0.8; stroke-linecap: round"/>
     </g>
     <g id="text_18">
      <!-- Attributs -->
      <g style="fill: #262626" transform="translate(772.070938 46.992123) scale(0.1 -0.1)">
       <use xlink:href="#ArialMT-41"/>
       <use xlink:href="#ArialMT-74" transform="translate(66.699219 0)"/>
       <use xlink:href="#ArialMT-74" transform="translate(94.482422 0)"/>
       <use xlink:href="#ArialMT-72" transform="translate(122.265625 0)"/>
       <use xlink:href="#ArialMT-69" transform="translate(155.566406 0)"/>
       <use xlink:href="#ArialMT-62" transform="translate(177.783203 0)"/>
       <use xlink:href="#ArialMT-75" transform="translate(233.398438 0)"/>
       <use xlink:href="#ArialMT-74" transform="translate(289.013672 0)"/>
       <use xlink:href="#ArialMT-73" transform="translate(316.796875 0)"/>
      </g>
     </g>
    </g>
    <g id="xtick_9">
     <g id="line2d_19">
      <path d="M 874.82 190.609375 
L 797.41 324.687428 
" clip-path="url(#p585ddc21c2)" style="fill: none; stroke: #cccccc; stroke-width: 0.8; stroke-linecap: round"/>
     </g>
     <g id="text_19">
      <!-- Lignes de code -->
      <g style="fill: #262626" transform="translate(756.496719 339.338346) scale(0.1 -0.1)">
       <use xlink:href="#ArialMT-4c"/>
       <use xlink:href="#ArialMT-69" transform="translate(55.615234 0)"/>
       <use xlink:href="#ArialMT-67" transform="translate(77.832031 0)"/>
       <use xlink:href="#ArialMT-6e" transform="translate(133.447266 0)"/>
       <use xlink:href="#ArialMT-65" transform="translate(189.0625 0)"/>
       <use xlink:href="#ArialMT-73" transform="translate(244.677734 0)"/>
       <use xlink:href="#ArialMT-20" transform="translate(294.677734 0)"/>
       <use xlink:href="#ArialMT-64" transform="translate(322.460938 0)"/>
       <use xlink:href="#ArialMT-65" transform="translate(378.076172 0)"/>
       <use xlink:href="#ArialMT-20" transform="translate(433.691406 0)"/>
       <use xlink:href="#ArialMT-63" transform="translate(461.474609 0)"/>
       <use xlink:href="#ArialMT-6f" transform="translate(511.474609 0)"/>
       <use xlink:href="#ArialMT-64" transform="translate(567.089844 0)"/>
       <use xlink:href="#ArialMT-65" transform="translate(622.705078 0)"/>
      </g>
     </g>
    </g>
   </g>
   <g id="matplotlib.axis_6">
    <g id="ytick_9">
     <g id="line2d_20">
      <path d="M 906.096768 190.609375 
C 906.096768 186.502148 905.287733 182.434858 903.715965 178.640274 
C 902.144198 174.845691 899.840263 171.397609 896.936015 168.49336 
C 894.031766 165.589112 890.583684 163.285177 886.789101 161.71341 
C 882.994517 160.141642 878.927227 159.332607 874.82 159.332607 
C 870.712773 159.332607 866.645483 160.141642 862.850899 161.71341 
C 859.056316 163.285177 855.608234 165.589112 852.703985 168.49336 
C 849.799737 171.397609 847.495802 174.845691 845.924035 178.640274 
C 844.352267 182.434858 843.543232 186.502148 843.543232 190.609375 
C 843.543232 194.716602 844.352267 198.783892 845.924035 202.578476 
C 847.495802 206.373059 849.799737 209.821141 852.703985 212.72539 
C 855.608234 215.629638 859.056316 217.933573 862.850899 219.50534 
C 866.645483 221.077108 870.712773 221.886143 874.82 221.886143 
C 878.927227 221.886143 882.994517 221.077108 886.789101 219.50534 
C 890.583684 217.933573 894.031766 215.629638 896.936015 212.72539 
C 899.840263 209.821141 902.144198 206.373059 903.715965 202.578476 
C 905.287733 198.783892 906.096768 194.716602 906.096768 190.609375 
" clip-path="url(#p585ddc21c2)" style="fill: none; stroke: #cccccc; stroke-width: 0.8; stroke-linecap: round"/>
     </g>
     <g id="text_20">
      <!-- 10 -->
      <g style="fill: #262626" transform="translate(903.715965 176.652774) scale(0.1 -0.1)">
       <use xlink:href="#ArialMT-31"/>
       <use xlink:href="#ArialMT-30" transform="translate(55.615234 0)"/>
      </g>
     </g>
    </g>
    <g id="ytick_10">
     <g id="line2d_21">
      <path d="M 937.373535 190.609375 
C 937.373535 182.39492 935.755467 174.26034 932.611931 166.671173 
C 929.468395 159.082007 924.860526 152.185843 919.052029 146.377346 
C 913.243532 140.568849 906.347368 135.96098 898.758202 132.817444 
C 891.169035 129.673908 883.034455 128.05584 874.82 128.05584 
C 866.605545 128.05584 858.470965 129.673908 850.881798 132.817444 
C 843.292632 135.96098 836.396468 140.568849 830.587971 146.377346 
C 824.779474 152.185843 820.171605 159.082007 817.028069 166.671173 
C 813.884533 174.26034 812.266465 182.39492 812.266465 190.609375 
C 812.266465 198.82383 813.884533 206.95841 817.028069 214.547577 
C 820.171605 222.136743 824.779474 229.032907 830.587971 234.841404 
C 836.396468 240.649901 843.292632 245.25777 850.881798 248.401306 
C 858.470965 251.544842 866.605545 253.16291 874.82 253.16291 
C 883.034455 253.16291 891.169035 251.544842 898.758202 248.401306 
C 906.347368 245.25777 913.243532 240.649901 919.052029 234.841404 
C 924.860526 229.032907 929.468395 222.136743 932.611931 214.547577 
C 935.755467 206.95841 937.373535 198.82383 937.373535 190.609375 
" clip-path="url(#p585ddc21c2)" style="fill: none; stroke: #cccccc; stroke-width: 0.8; stroke-linecap: round"/>
     </g>
     <g id="text_21">
      <!-- 20 -->
      <g style="fill: #262626" transform="translate(932.611931 164.683673) scale(0.1 -0.1)">
       <use xlink:href="#ArialMT-32"/>
       <use xlink:href="#ArialMT-30" transform="translate(55.615234 0)"/>
      </g>
     </g>
    </g>
    <g id="ytick_11">
     <g id="line2d_22">
      <path d="M 968.650303 190.609375 
C 968.650303 178.287693 966.2232 166.085823 961.507896 154.702073 
C 956.792593 143.318322 949.880789 132.974077 941.168044 124.261331 
C 932.455298 115.548586 922.111053 108.636782 910.727302 103.921479 
C 899.343552 99.206175 887.141682 96.779072 874.82 96.779072 
C 862.498318 96.779072 850.296448 99.206175 838.912698 103.921479 
C 827.528947 108.636782 817.184702 115.548586 808.471956 124.261331 
C 799.759211 132.974077 792.847407 143.318322 788.132104 154.702073 
C 783.4168 166.085823 780.989697 178.287693 780.989697 190.609375 
C 780.989697 202.931057 783.4168 215.132927 788.132104 226.516677 
C 792.847407 237.900428 799.759211 248.244673 808.471956 256.957419 
C 817.184702 265.670164 827.528947 272.581968 838.912698 277.297271 
C 850.296448 282.012575 862.498318 284.439678 874.82 284.439678 
C 887.141682 284.439678 899.343552 282.012575 910.727302 277.297271 
C 922.111053 272.581968 932.455298 265.670164 941.168044 256.957419 
C 949.880789 248.244673 956.792593 237.900428 961.507896 226.516677 
C 966.2232 215.132927 968.650303 202.931057 968.650303 190.609375 
" clip-path="url(#p585ddc21c2)" style="fill: none; stroke: #cccccc; stroke-width: 0.8; stroke-linecap: round"/>
     </g>
     <g id="text_22">
      <!-- 30 -->
      <g style="fill: #262626" transform="translate(961.507896 152.714573) scale(0.1 -0.1)">
       <use xlink:href="#ArialMT-33"/>
       <use xlink:href="#ArialMT-30" transform="translate(55.615234 0)"/>
      </g>
     </g>
    </g>
    <g id="ytick_12">
     <g id="line2d_23">
      <path d="M 999.927071 190.609375 
C 999.927071 174.180465 996.690934 157.911305 990.403862 142.732972 
C 984.11679 127.554638 974.901052 113.762311 963.284058 102.145317 
C 951.667064 90.528323 937.874737 81.312585 922.696403 75.025513 
C 907.51807 68.738441 891.24891 65.502304 874.82 65.502304 
C 858.39109 65.502304 842.12193 68.738441 826.943597 75.025513 
C 811.765263 81.312585 797.972936 90.528323 786.355942 102.145317 
C 774.738948 113.762311 765.52321 127.554638 759.236138 142.732972 
C 752.949066 157.911305 749.712929 174.180465 749.712929 190.609375 
C 749.712929 207.038285 752.949066 223.307445 759.236138 238.485778 
C 765.52321 253.664112 774.738948 267.456439 786.355942 279.073433 
C 797.972936 290.690427 811.765263 299.906165 826.943597 306.193237 
C 842.12193 312.480309 858.39109 315.716446 874.82 315.716446 
C 891.24891 315.716446 907.51807 312.480309 922.696403 306.193237 
C 937.874737 299.906165 951.667064 290.690427 963.284058 279.073433 
C 974.901052 267.456439 984.11679 253.664112 990.403862 238.485778 
C 996.690934 223.307445 999.927071 207.038285 999.927071 190.609375 
" clip-path="url(#p585ddc21c2)" style="fill: none; stroke: #cccccc; stroke-width: 0.8; stroke-linecap: round"/>
     </g>
     <g id="text_23">
      <!-- 40 -->
      <g style="fill: #262626" transform="translate(990.403862 140.745472) scale(0.1 -0.1)">
       <use xlink:href="#ArialMT-34"/>
       <use xlink:href="#ArialMT-30" transform="translate(55.615234 0)"/>
      </g>
     </g>
    </g>
   </g>
   <g id="patch_9">
    <path d="M 881.075354 190.609375 
L 868.564646 179.774785 
L 851.362424 231.239088 
z
" clip-path="url(#p585ddc21c2)" style="fill: #ef4444; opacity: 0.25; stroke: #ef4444; stroke-linejoin: miter"/>
   </g>
   <g id="line2d_24">
    <path d="M 881.075354 190.609375 
L 868.564646 179.774785 
L 851.362424 231.239088 
L 881.075354 190.609375 
" clip-path="url(#p585ddc21c2)" style="fill: none; stroke: #ef4444; stroke-width: 2; stroke-linecap: round"/>
    <defs>
     <path id="m82f58f33fe" d="M 0 3 
C 0.795609 3 1.55874 2.683901 2.12132 2.12132 
C 2.683901 1.55874 3 0.795609 3 0 
C 3 -0.795609 2.683901 -1.55874 2.12132 -2.12132 
C 1.55874 -2.683901 0.795609 -3 0 -3 
C -0.795609 -3 -1.55874 -2.683901 -2.12132 -2.12132 
C -2.683901 -1.55874 -3 -0.795609 -3 0 
C -3 0.795609 -2.683901 1.55874 -2.12132 2.12132 
C -1.55874 2.683901 -0.795609 3 0 3 
z
" style="stroke: #ef4444"/>
    </defs>
    <g clip-path="url(#p585ddc21c2)">
     <use xlink:href="#m82f58f33fe" x="881.075354" y="190.609375" style="fill: #ef4444; stroke: #ef4444"/>
     <use xlink:href="#m82f58f33fe" x="868.564646" y="179.774785" style="fill: #ef4444; stroke: #ef4444"/>
     <use xlink:href="#m82f58f33fe" x="851.362424" y="231.239088" style="fill: #ef4444; stroke: #ef4444"/>
     <use xlink:href="#m82f58f33fe" x="881.075354" y="190.609375" style="fill: #ef4444; stroke: #ef4444"/>
    </g>
   </g>
   <g id="patch_10">
    <path d="M 1029.64 190.609375 
C 1029.64 170.278599 1025.63528 150.145514 1017.855029 131.362326 
C 1010.074778 112.579138 998.670302 95.511133 984.294272 81.135103 
C 969.918242 66.759073 952.850237 55.354597 934.067049 47.574346 
C 915.283861 39.794095 895.150776 35.789375 874.82 35.789375 
C 854.489224 35.789375 834.356139 39.794095 815.572951 47.574346 
C 796.789763 55.354597 779.721758 66.759073 765.345728 81.135103 
C 750.969698 95.511133 739.565222 112.579138 731.784971 131.362326 
C 724.00472 150.145514 720 170.278599 720 190.609375 
C 720 210.940151 724.00472 231.073236 731.784971 249.856424 
C 739.565222 268.639612 750.969698 285.707617 765.345728 300.083647 
C 779.721758 314.459677 796.789763 325.864153 815.572951 333.644404 
C 834.356139 341.424655 854.489224 345.429375 874.82 345.429375 
C 895.150776 345.429375 915.283861 341.424655 934.067049 333.644404 
C 952.850237 325.864153 969.918242 314.459677 984.294272 300.083647 
C 998.670302 285.707617 1010.074778 268.639612 1017.855029 249.856424 
C 1025.63528 231.073236 1029.64 210.940151 1029.64 190.609375 
" style="fill: none; stroke: #cccccc; stroke-width: 0.8; stroke-linejoin: miter; stroke-linecap: square"/>
   </g>
   <g id="text_24">
    <!-- Note -->
    <g style="fill: #262626" transform="translate(861.487813 15.789375) scale(0.12 -0.12)">
     <use xlink:href="#Arial-BoldMT-4e"/>
     <use xlink:href="#Arial-BoldMT-6f" transform="translate(72.216797 0)"/>
     <use xlink:href="#Arial-BoldMT-74" transform="translate(133.300781 0)"/>
     <use xlink:href="#Arial-BoldMT-65" transform="translate(166.601562 0)"/>
    </g>
   </g>
  </g>
 </g>
 <defs>
  <clipPath id="pc94fcb57cc">
   <path d="M 316.84 190.609375 
C 316.84 170.278599 312.83528 150.145514 305.055029 131.362326 
C 297.274778 112.579138 285.870302 95.511133 271.494272 81.135103 
C 257.118242 66.759073 240.050237 55.354597 221.267049 47.574346 
C 202.483861 39.794095 182.350776 35.789375 162.02 35.789375 
C 141.689224 35.789375 121.556139 39.794095 102.772951 47.574346 
C 83.989763 55.354597 66.921758 66.759073 52.545728 81.135103 
C 38.169698 95.511133 26.765222 112.579138 18.984971 131.362326 
C 11.20472 150.145514 7.2 170.278599 7.2 190.609375 
C 7.2 210.940151 11.20472 231.073236 18.984971 249.856424 
C 26.765222 268.639612 38.169698 285.707617 52.545728 300.083647 
C 66.921758 314.459677 83.989763 325.864153 102.772951 333.644404 
C 121.556139 341.424655 141.689224 345.429375 162.02 345.429375 
C 182.350776 345.429375 202.483861 341.424655 221.267049 333.644404 
C 240.050237 325.864153 257.118242 314.459677 271.494272 300.083647 
C 285.870302 285.707617 297.274778 268.639612 305.055029 249.856424 
C 312.83528 231.073236 316.84 210.940151 316.84 190.609375 
M 162.02 190.609375 
C 162.02 190.609375 162.02 190.609375 162.02 190.609375 
C 162.02 190.609375 162.02 190.609375 162.02 190.609375 
C 162.02 190.609375 162.02 190.609375 162.02 190.609375 
C 162.02 190.609375 162.02 190.609375 162.02 190.609375 
C 162.02 190.609375 162.02 190.609375 162.02 190.609375 
C 162.02 190.609375 162.02 190.609375 162.02 190.609375 
C 162.02 190.609375 162.02 190.609375 162.02 190.609375 
C 162.02 190.609375 162.02 190.609375 162.02 190.609375 
C 162.02 190.609375 162.02 190.609375 162.02 190.609375 
C 162.02 190.609375 162.02 190.609375 162.02 190.609375 
C 162.02 190.609375 162.02 190.609375 162.02 190.609375 
C 162.02 190.609375 162.02 190.609375 162.02 190.609375 
C 162.02 190.609375 162.02 190.609375 162.02 190.609375 
C 162.02 190.609375 162.02 190.609375 162.02 190.609375 
C 162.02 190.609375 162.02 190.609375 162.02 190.609375 
C 162.02 190.609375 162.02 190.609375 162.02 190.609375 
z
"/>
  </clipPath>
  <clipPath id="pee1ef27aa1">
   <path d="M 673.24 190.609375 
C 673.24 170.278599 669.23528 150.145514 661.455029 131.362326 
C 653.674778 112.579138 642.270302 95.511133 627.894272 81.135103 
C 613.518242 66.759073 596.450237 55.354597 577.667049 47.574346 
C 558.883861 39.794095 538.750776 35.789375 518.42 35.789375 
C 498.089224 35.789375 477.956139 39.794095 459.172951 47.574346 
C 440.389763 55.354597 423.321758 66.759073 408.945728 81.135103 
C 394.569698 95.511133 383.165222 112.579138 375.384971 131.362326 
C 367.60472 150.145514 363.6 170.278599 363.6 190.609375 
C 363.6 210.940151 367.60472 231.073236 375.384971 249.856424 
C 383.165222 268.639612 394.569698 285.707617 408.945728 300.083647 
C 423.321758 314.459677 440.389763 325.864153 459.172951 333.644404 
C 477.956139 341.424655 498.089224 345.429375 518.42 345.429375 
C 538.750776 345.429375 558.883861 341.424655 577.667049 333.644404 
C 596.450237 325.864153 613.518242 314.459677 627.894272 300.083647 
C 642.270302 285.707617 653.674778 268.639612 661.455029 249.856424 
C 669.23528 231.073236 673.24 210.940151 673.24 190.609375 
M 518.42 190.609375 
C 518.42 190.609375 518.42 190.609375 518.42 190.609375 
C 518.42 190.609375 518.42 190.609375 518.42 190.609375 
C 518.42 190.609375 518.42 190.609375 518.42 190.609375 
C 518.42 190.609375 518.42 190.609375 518.42 190.609375 
C 518.42 190.609375 518.42 190.609375 518.42 190.609375 
C 518.42 190.609375 518.42 190.609375 518.42 190.609375 
C 518.42 190.609375 518.42 190.609375 518.42 190.609375 
C 518.42 190.609375 518.42 190.609375 518.42 190.609375 
C 518.42 190.609375 518.42 190.609375 518.42 190.609375 
C 518.42 190.609375 518.42 190.609375 518.42 190.609375 
C 518.42 190.609375 518.42 190.609375 518.42 190.609375 
C 518.42 190.609375 518.42 190.609375 518.42 190.609375 
C 518.42 190.609375 518.42 190.609375 518.42 190.609375 
C 518.42 190.609375 518.42 190.609375 518.42 190.609375 
C 518.42 190.609375 518.42 190.609375 518.42 190.609375 
C 518.42 190.609375 518.42 190.609375 518.42 190.609375 
z
"/>
  </clipPath>
  <clipPath id="p585ddc21c2">
   <path d="M 1029.64 190.609375 
C 1029.64 170.278599 1025.63528 150.145514 1017.855029 131.362326 
C 1010.074778 112.579138 998.670302 95.511133 984.294272 81.135103 
C 969.918242 66.759073 952.850237 55.354597 934.067049 47.574346 
C 915.283861 39.794095 895.150776 35.789375 874.82 35.789375 
C 854.489224 35.789375 834.356139 39.794095 815.572951 47.574346 
C 796.789763 55.354597 779.721758 66.759073 765.345728 81.135103 
C 750.969698 95.511133 739.565222 112.579138 731.784971 131.362326 
C 724.00472 150.145514 720 170.278599 720 190.609375 
C 720 210.940151 724.00472 231.073236 731.784971 249.856424 
C 739.565222 268.639612 750.969698 285.707617 765.345728 300.083647 
C 779.721758 314.459677 796.789763 325.864153 815.572951 333.644404 
C 834.356139 341.424655 854.489224 345.429375 874.82 345.429375 
C 895.150776 345.429375 915.283861 341.424655 934.067049 333.644404 
C 952.850237 325.864153 969.918242 314.459677 984.294272 300.083647 
C 998.670302 285.707617 1010.074778 268.639612 1017.855029 249.856424 
C 1025.63528 231.073236 1029.64 210.940151 1029.64 190.609375 
M 874.82 190.609375 
C 874.82 190.609375 874.82 190.609375 874.82 190.609375 
C 874.82 190.609375 874.82 190.609375 874.82 190.609375 
C 874.82 190.609375 874.82 190.609375 874.82 190.609375 
C 874.82 190.609375 874.82 190.609375 874.82 190.609375 
C 874.82 190.609375 874.82 190.609375 874.82 190.609375 
C 874.82 190.609375 874.82 190.609375 874.82 190.609375 
C 874.82 190.609375 874.82 190.609375 874.82 190.609375 
C 874.82 190.609375 874.82 190.609375 874.82 190.609375 
C 874.82 190.609375 874.82 190.609375 874.82 190.609375 
C 874.82 190.609375 874.82 190.609375 874.82 190.609375 
C 874.82 190.609375 874.82 190.609375 874.82 190.609375 
C 874.82 190.609375 874.82 190.609375 874.82 190.609375 
C 874.82 190.609375 874.82 190.609375 874.82 190.609375 
C 874.82 190.609375 874.82 190.609375 874.82 190.609375 
C 874.82 190.609375 874.82 190.609375 874.82 190.609375 
C 874.82 190.609375 874.82 190.609375 874.82 190.609375 
z
"/>
  </clipPath>
 </defs>
</svg>
